<?xml version="1.0" standalone="no"?>
<!DOCTYPE svg PUBLIC "-//W3C//DTD SVG 20010904//EN"
 "http://www.w3.org/TR/2001/REC-SVG-20010904/DTD/svg10.dtd">
<svg version="1.0" xmlns="http://www.w3.org/2000/svg"
 width="512.000000pt" height="512.000000pt" viewBox="0 0 512.000000 512.000000"
 preserveAspectRatio="xMidYMid meet">
<metadata>
Created by potrace 1.15, written by Peter Selinger 2001-2017
</metadata>
<g transform="translate(0.000000,512.000000) scale(0.100000,-0.100000)"
fill="#7e692d" stroke="none">
<path d="M1640 4898 c-48 -16 -138 -110 -179 -187 -28 -54 -33 -71 -29 -115 2
-28 15 -75 29 -105 l25 -54 -61 -33 -60 -32 -80 43 c-119 64 -122 64 -271 7
-260 -100 -276 -94 -89 30 95 63 114 93 126 195 7 63 13 81 36 105 17 18 24
32 17 36 -6 4 -10 18 -10 32 1 14 -3 25 -7 25 -5 0 -15 12 -23 28 -17 32 -29
33 -67 8 -35 -23 -51 -45 -67 -96 -7 -22 -17 -45 -22 -52 -6 -8 -7 -34 -2 -65
14 -94 16 -93 -156 -148 -70 -23 -150 -56 -178 -73 -142 -91 -206 -168 -186
-225 16 -45 239 -152 317 -152 27 0 28 -2 16 -19 -48 -65 -228 -296 -273 -349
-30 -35 -56 -75 -59 -90 -3 -15 -39 -141 -81 -280 -81 -273 -98 -370 -85 -490
14 -129 44 -196 153 -340 87 -116 168 -242 289 -452 130 -226 145 -250 199
-306 l49 -51 -82 -18 -82 -17 -78 41 c-85 44 -101 48 -117 28 -13 -16 53 -135
112 -204 31 -36 46 -44 94 -53 31 -7 77 -21 102 -33 46 -22 53 -38 35 -80 -5
-13 4 -28 34 -59 l42 -41 -16 -46 c-22 -68 -45 -195 -45 -254 0 -34 -7 -63
-19 -84 -12 -19 -23 -64 -29 -116 -7 -60 -16 -94 -31 -115 -58 -82 -74 -170
-50 -267 l11 -43 76 -8 c134 -12 162 -11 177 10 8 10 16 23 17 27 2 5 46 4 98
-2 83 -10 113 -9 234 10 140 21 206 45 230 83 19 31 -26 65 -113 84 -77 17
-289 89 -305 104 -11 11 57 30 105 30 20 0 56 3 81 6 l44 6 1 87 c1 59 11 123
32 206 32 128 112 474 130 566 l12 56 87 18 c112 24 217 59 263 89 l36 24 77
-77 c42 -42 74 -80 71 -84 -3 -4 -2 -5 2 -2 10 8 143 -127 136 -138 -3 -6 -2
-7 4 -4 5 4 23 -7 38 -23 32 -34 54 -37 113 -16 l40 14 16 -41 c20 -53 56
-105 181 -257 55 -68 99 -127 97 -132 -1 -5 1 -7 6 -4 9 6 88 -84 85 -96 -2
-5 1 -7 5 -5 13 3 72 -50 64 -58 -4 -5 -2 -5 4 -2 15 9 87 -70 78 -85 -4 -6
-3 -8 3 -5 6 4 18 -9 28 -27 18 -34 18 -35 -9 -110 -46 -124 -120 -224 -191
-257 -47 -22 -39 -49 24 -81 98 -50 247 -32 316 38 34 34 36 34 74 23 22 -6
55 -9 75 -5 31 6 36 11 36 35 0 16 9 48 20 72 37 83 20 154 -50 210 -24 19
-51 53 -61 77 -10 23 -22 42 -27 42 -14 0 -58 105 -82 195 -49 181 -143 323
-249 374 -30 14 -56 31 -57 36 -1 6 38 30 88 54 147 73 250 186 189 209 -16 6
1 26 109 130 l128 122 87 -20 c115 -27 131 -26 149 7 21 43 44 128 61 227 9
50 30 141 47 201 27 99 30 119 25 205 -6 104 -42 255 -82 345 l-25 57 29 34
c16 18 36 57 44 86 40 137 59 229 64 301 3 42 9 77 14 77 4 0 34 -29 66 -65
l58 -64 45 20 45 20 97 -42 c54 -23 96 -45 94 -48 -2 -3 6 -6 17 -7 12 -1 70
-20 129 -43 58 -22 112 -38 120 -35 12 5 47 44 156 177 49 59 114 189 162 322
18 50 47 115 65 145 18 30 38 71 44 90 14 46 8 244 -9 265 -16 19 -30 10 -30
-21 0 -45 -18 -24 -25 29 -9 71 -14 87 -29 87 -8 0 -19 7 -26 15 -8 10 -17 12
-24 6 -6 -5 -22 -11 -36 -13 -23 -3 -25 -8 -28 -58 -2 -30 -7 -59 -13 -65 -17
-17 -10 -89 17 -167 27 -76 27 -77 9 -123 -46 -121 -280 -415 -329 -415 -10 0
-43 21 -74 46 -31 26 -71 53 -87 61 -17 8 -40 31 -50 51 -13 23 -37 45 -68 61
-44 22 -53 33 -97 121 -26 53 -54 101 -62 107 -7 6 -40 14 -73 18 -55 6 -115
22 -115 31 0 2 9 13 20 24 16 16 19 28 14 55 -5 28 -3 36 12 41 84 30 81 140
-4 183 -57 29 -65 43 -67 124 -3 79 -26 150 -57 171 -12 9 -16 16 -9 21 25 15
6 49 -70 125 -45 44 -86 80 -90 80 -5 0 -24 14 -43 30 -19 17 -37 26 -40 21
-7 -11 -55 11 -67 31 -6 10 -13 8 -31 -9 -13 -12 -55 -27 -100 -37 -89 -20
-128 -49 -128 -96 0 -17 -11 -47 -25 -68 -13 -20 -31 -67 -38 -105 -12 -55
-22 -75 -57 -114 -41 -43 -42 -47 -25 -59 11 -8 23 -14 27 -14 5 0 8 -44 6
-97 l-3 -98 74 -26 c62 -22 77 -31 90 -58 15 -31 14 -32 -25 -72 -50 -52 -83
-68 -229 -114 -140 -45 -150 -51 -135 -89 17 -47 12 -61 -53 -139 -51 -61 -66
-89 -84 -150 -14 -45 -37 -93 -58 -122 -25 -32 -34 -52 -30 -66 5 -14 -3 -29
-28 -54 l-35 -35 -199 -2 c-393 -5 -362 -8 -426 36 -53 36 -59 38 -114 34 -32
-3 -65 -8 -73 -12 -10 -4 -62 22 -142 72 l-127 78 61 50 c37 30 70 67 85 96
16 31 40 57 71 77 91 58 152 137 152 196 0 18 9 31 30 43 29 16 30 19 24 62
-4 25 -13 69 -20 99 -16 69 -4 90 73 128 51 24 59 26 99 15 70 -19 83 -16 100
23 16 39 18 81 4 90 -16 10 39 80 67 85 47 9 51 33 15 102 -26 52 -32 74 -32
128 0 36 -7 92 -15 123 -8 32 -15 69 -15 83 0 42 -56 89 -135 114 -82 26 -241
35 -295 18z m1235 -1758 c11 -25 37 -54 65 -74 53 -38 117 -131 96 -139 -7 -3
-23 -34 -36 -69 -38 -103 -81 -178 -125 -213 -49 -41 -136 -83 -189 -92 -30
-4 -41 -12 -49 -32 -7 -19 -33 -37 -96 -68 -47 -23 -111 -60 -141 -83 -92 -70
-84 -71 -128 17 -22 43 -54 112 -72 153 -65 152 -105 192 -230 226 -83 22
-238 85 -298 120 l-47 28 30 12 c17 7 42 13 57 14 33 0 107 36 129 62 15 19
19 18 150 -26 113 -38 154 -47 262 -56 134 -11 222 -3 278 25 15 8 63 54 107
102 80 87 106 104 213 131 3 1 14 -16 24 -38z m-1420 -914 c19 -8 45 -25 58
-38 13 -13 43 -36 68 -52 24 -16 68 -50 97 -74 l53 -46 -83 -40 -83 -41 -46
85 c-25 47 -64 113 -87 147 -23 34 -42 64 -42 67 0 10 30 6 65 -8z m1345 -261
c0 -3 -27 -43 -59 -90 l-59 -86 -60 74 -61 74 56 2 c59 2 153 18 161 26 7 7
22 6 22 0z"/>
</g>
</svg>
